<svg width="733" height="234" viewBox="0 0 733 234" fill="none" xmlns="http://www.w3.org/2000/svg">
<path d="M45.875 138V127.893H50.5625V101.467H45.875V91.3594H72.2422V101.467H65.7969V128.039H75.3477L76.5195 117.111H86.1875V138H45.875ZM99.8691 138.527C97.8574 138.527 96.0605 138.127 94.4785 137.326C92.916 136.506 91.6855 135.383 90.7871 133.957C89.9082 132.531 89.4688 130.891 89.4688 129.035C89.4688 126.145 90.582 123.84 92.8086 122.121C95.0352 120.402 98.0039 119.543 101.715 119.543C103.004 119.543 104.234 119.621 105.406 119.777C106.578 119.934 107.77 120.197 108.98 120.568V119.924C108.98 118.146 108.434 116.857 107.34 116.057C106.266 115.256 104.537 114.855 102.154 114.855C100.436 114.855 98.6973 115.08 96.9395 115.529C95.1816 115.979 93.5801 116.604 92.1348 117.404L91.3438 117.053V108.498C93.3945 107.697 95.7188 107.092 98.3164 106.682C100.934 106.271 103.561 106.066 106.197 106.066C112.037 106.066 116.305 107.043 119 108.996C121.695 110.949 123.043 114.084 123.043 118.4V129.211H126.852V138H110.855L109.42 133.4C108.502 135.002 107.193 136.262 105.494 137.18C103.814 138.078 101.939 138.527 99.8691 138.527ZM105.992 131.027C106.52 131.027 107.066 130.939 107.633 130.764C108.219 130.568 108.668 130.314 108.98 130.002V125.109C108.492 124.895 107.994 124.748 107.486 124.67C106.998 124.592 106.539 124.553 106.109 124.553C105.113 124.553 104.273 124.846 103.59 125.432C102.926 126.018 102.594 126.799 102.594 127.775C102.594 128.771 102.906 129.562 103.531 130.148C104.156 130.734 104.977 131.027 105.992 131.027ZM130.748 138V129.211H134.996V115.764H130.748V107.766L148.766 106.037V110.021C149.977 108.752 151.49 107.775 153.307 107.092C155.123 106.389 157.076 106.037 159.166 106.037C162.701 106.037 165.289 107.043 166.93 109.055C168.59 111.047 169.42 114.055 169.42 118.078V129.211H173.521V138H155.357V118.078C155.357 116.945 155.113 116.125 154.625 115.617C154.137 115.09 153.492 114.826 152.691 114.826C152.027 114.826 151.363 115.021 150.699 115.412C150.055 115.803 149.508 116.34 149.059 117.023V129.211H151.695V138H130.748ZM190.279 138.527C187.447 138.527 185.006 137.854 182.955 136.506C180.904 135.158 179.332 133.264 178.238 130.822C177.145 128.361 176.598 125.5 176.598 122.238C176.598 118.957 177.135 116.105 178.209 113.684C179.283 111.262 180.787 109.387 182.721 108.059C184.674 106.73 186.949 106.066 189.547 106.066C192.906 106.066 196.09 107.287 199.098 109.729V102.199H193.971V94.2012L213.16 92.2969V129.211H217.262V138H199.391V134.719C198.18 135.871 196.773 136.799 195.172 137.502C193.57 138.186 191.939 138.527 190.279 138.527ZM194.82 129.768C195.562 129.768 196.324 129.65 197.105 129.416C197.906 129.182 198.57 128.879 199.098 128.508V116.174C198.57 115.783 197.906 115.461 197.105 115.207C196.324 114.953 195.562 114.826 194.82 114.826C193.453 114.826 192.379 115.48 191.598 116.789C190.836 118.098 190.455 119.924 190.455 122.268C190.455 124.611 190.836 126.447 191.598 127.775C192.379 129.104 193.453 129.768 194.82 129.768ZM238.033 138.527C234.361 138.527 231.188 137.873 228.512 136.564C225.855 135.256 223.805 133.391 222.359 130.969C220.934 128.547 220.221 125.666 220.221 122.326C220.221 118.967 220.934 116.076 222.359 113.654C223.805 111.232 225.855 109.367 228.512 108.059C231.188 106.73 234.361 106.066 238.033 106.066C241.705 106.066 244.869 106.73 247.525 108.059C250.201 109.367 252.252 111.232 253.678 113.654C255.123 116.076 255.846 118.967 255.846 122.326C255.846 125.666 255.123 128.547 253.678 130.969C252.252 133.391 250.201 135.256 247.525 136.564C244.869 137.873 241.705 138.527 238.033 138.527ZM238.033 130.002C240.67 130.002 241.988 127.434 241.988 122.297C241.988 117.16 240.67 114.592 238.033 114.592C235.396 114.592 234.078 117.16 234.078 122.297C234.078 127.434 235.396 130.002 238.033 130.002ZM269.205 138L260.152 115.383H257.369V106.594H278.551V115.383H275.035L280.133 129.738L285.729 115.383H282.213V106.594H297.066V115.383H294.283L285.23 138H269.205ZM310.631 138L301.578 115.383H298.795V106.594H319.977V115.383H316.461L321.559 129.738L327.154 115.383H323.639V106.594H338.492V115.383H335.709L326.656 138H310.631ZM352.32 138L362.311 91.3594H376.666L366.676 138H352.32ZM391.52 138V127.893H396.207V101.467H391.52V91.3594H417.887V101.467H411.441V128.039H420.992L422.164 117.111H431.832V138H391.52ZM445.514 138.527C443.502 138.527 441.705 138.127 440.123 137.326C438.561 136.506 437.33 135.383 436.432 133.957C435.553 132.531 435.113 130.891 435.113 129.035C435.113 126.145 436.227 123.84 438.453 122.121C440.68 120.402 443.648 119.543 447.359 119.543C448.648 119.543 449.879 119.621 451.051 119.777C452.223 119.934 453.414 120.197 454.625 120.568V119.924C454.625 118.146 454.078 116.857 452.984 116.057C451.91 115.256 450.182 114.855 447.799 114.855C446.08 114.855 444.342 115.08 442.584 115.529C440.826 115.979 439.225 116.604 437.779 117.404L436.988 117.053V108.498C439.039 107.697 441.363 107.092 443.961 106.682C446.578 106.271 449.205 106.066 451.842 106.066C457.682 106.066 461.949 107.043 464.645 108.996C467.34 110.949 468.688 114.084 468.688 118.4V129.211H472.496V138H456.5L455.064 133.4C454.146 135.002 452.838 136.262 451.139 137.18C449.459 138.078 447.584 138.527 445.514 138.527ZM451.637 131.027C452.164 131.027 452.711 130.939 453.277 130.764C453.863 130.568 454.312 130.314 454.625 130.002V125.109C454.137 124.895 453.639 124.748 453.131 124.67C452.643 124.592 452.184 124.553 451.754 124.553C450.758 124.553 449.918 124.846 449.234 125.432C448.57 126.018 448.238 126.799 448.238 127.775C448.238 128.771 448.551 129.562 449.176 130.148C449.801 130.734 450.621 131.027 451.637 131.027ZM476.393 138V129.211H480.641V115.764H476.393V107.766L494.41 106.037V110.021C495.621 108.752 497.135 107.775 498.951 107.092C500.768 106.389 502.721 106.037 504.811 106.037C508.346 106.037 510.934 107.043 512.574 109.055C514.234 111.047 515.064 114.055 515.064 118.078V129.211H519.166V138H501.002V118.078C501.002 116.945 500.758 116.125 500.27 115.617C499.781 115.09 499.137 114.826 498.336 114.826C497.672 114.826 497.008 115.021 496.344 115.412C495.699 115.803 495.152 116.34 494.703 117.023V129.211H497.34V138H476.393ZM535.924 138.527C533.092 138.527 530.65 137.854 528.6 136.506C526.549 135.158 524.977 133.264 523.883 130.822C522.789 128.361 522.242 125.5 522.242 122.238C522.242 118.957 522.779 116.105 523.854 113.684C524.928 111.262 526.432 109.387 528.365 108.059C530.318 106.73 532.594 106.066 535.191 106.066C538.551 106.066 541.734 107.287 544.742 109.729V102.199H539.615V94.2012L558.805 92.2969V129.211H562.906V138H545.035V134.719C543.824 135.871 542.418 136.799 540.816 137.502C539.215 138.186 537.584 138.527 535.924 138.527ZM540.465 129.768C541.207 129.768 541.969 129.65 542.75 129.416C543.551 129.182 544.215 128.879 544.742 128.508V116.174C544.215 115.783 543.551 115.461 542.75 115.207C541.969 114.953 541.207 114.826 540.465 114.826C539.098 114.826 538.023 115.48 537.242 116.789C536.48 118.098 536.1 119.924 536.1 122.268C536.1 124.611 536.48 126.447 537.242 127.775C538.023 129.104 539.098 129.768 540.465 129.768ZM583.678 138.527C580.006 138.527 576.832 137.873 574.156 136.564C571.5 135.256 569.449 133.391 568.004 130.969C566.578 128.547 565.865 125.666 565.865 122.326C565.865 118.967 566.578 116.076 568.004 113.654C569.449 111.232 571.5 109.367 574.156 108.059C576.832 106.73 580.006 106.066 583.678 106.066C587.35 106.066 590.514 106.73 593.17 108.059C595.846 109.367 597.896 111.232 599.322 113.654C600.768 116.076 601.49 118.967 601.49 122.326C601.49 125.666 600.768 128.547 599.322 130.969C597.896 133.391 595.846 135.256 593.17 136.564C590.514 137.873 587.35 138.527 583.678 138.527ZM583.678 130.002C586.314 130.002 587.633 127.434 587.633 122.297C587.633 117.16 586.314 114.592 583.678 114.592C581.041 114.592 579.723 117.16 579.723 122.297C579.723 127.434 581.041 130.002 583.678 130.002ZM614.85 138L605.797 115.383H603.014V106.594H624.195V115.383H620.68L625.777 129.738L631.373 115.383H627.857V106.594H642.711V115.383H639.928L630.875 138H614.85ZM644.41 138V129.211H648.658V102.023H644.41V94.0254L662.721 92.2969V109.875C665.279 107.336 668.648 106.066 672.828 106.066C676.363 106.066 678.951 107.072 680.592 109.084C682.252 111.076 683.082 114.084 683.082 118.107V129.211H687.184V138H669.02V118.107C669.02 116.975 668.775 116.154 668.287 115.646C667.799 115.119 667.154 114.855 666.354 114.855C665.689 114.855 665.025 115.051 664.361 115.441C663.717 115.832 663.17 116.369 662.721 117.053V129.211H665.357V138H644.41Z" fill="white"/>
</svg>
