<svg width="642" height="48" viewBox="0 0 642 48" fill="none" xmlns="http://www.w3.org/2000/svg">
<path d="M0 46.6406V36.5332H4.6875V10.1074H0V0H26.3672V10.1074H19.9219V36.6797H29.4727L30.6445 25.752H40.3125V46.6406H0ZM53.9941 47.168C51.9824 47.168 50.1855 46.7676 48.6035 45.9668C47.041 45.1465 45.8105 44.0234 44.9121 42.5977C44.0332 41.1719 43.5938 39.5312 43.5938 37.6758C43.5938 34.7852 44.707 32.4805 46.9336 30.7617C49.1602 29.043 52.1289 28.1836 55.8398 28.1836C57.1289 28.1836 58.3594 28.2617 59.5312 28.418C60.7031 28.5742 61.8945 28.8379 63.1055 29.209V28.5645C63.1055 26.7871 62.5586 25.498 61.4648 24.6973C60.3906 23.8965 58.6621 23.4961 56.2793 23.4961C54.5605 23.4961 52.8223 23.7207 51.0645 24.1699C49.3066 24.6191 47.7051 25.2441 46.2598 26.0449L45.4688 25.6934V17.1387C47.5195 16.3379 49.8438 15.7324 52.4414 15.3223C55.0586 14.9121 57.6855 14.707 60.3223 14.707C66.1621 14.707 70.4297 15.6836 73.125 17.6367C75.8203 19.5898 77.168 22.7246 77.168 27.041V37.8516H80.9766V46.6406H64.9805L63.5449 42.041C62.627 43.6426 61.3184 44.9023 59.6191 45.8203C57.9395 46.7188 56.0645 47.168 53.9941 47.168ZM60.1172 39.668C60.6445 39.668 61.1914 39.5801 61.7578 39.4043C62.3438 39.209 62.793 38.9551 63.1055 38.6426V33.75C62.6172 33.5352 62.1191 33.3887 61.6113 33.3105C61.123 33.2324 60.6641 33.1934 60.2344 33.1934C59.2383 33.1934 58.3984 33.4863 57.7148 34.0723C57.0508 34.6582 56.7188 35.4395 56.7188 36.416C56.7188 37.4121 57.0312 38.2031 57.6562 38.7891C58.2812 39.375 59.1016 39.668 60.1172 39.668ZM84.873 46.6406V37.8516H89.1211V24.4043H84.873V16.4062L102.891 14.6777V18.6621C104.102 17.3926 105.615 16.416 107.432 15.7324C109.248 15.0293 111.201 14.6777 113.291 14.6777C116.826 14.6777 119.414 15.6836 121.055 17.6953C122.715 19.6875 123.545 22.6953 123.545 26.7188V37.8516H127.646V46.6406H109.482V26.7188C109.482 25.5859 109.238 24.7656 108.75 24.2578C108.262 23.7305 107.617 23.4668 106.816 23.4668C106.152 23.4668 105.488 23.6621 104.824 24.0527C104.18 24.4434 103.633 24.9805 103.184 25.6641V37.8516H105.82V46.6406H84.873ZM144.404 47.168C141.572 47.168 139.131 46.4941 137.08 45.1465C135.029 43.7988 133.457 41.9043 132.363 39.4629C131.27 37.002 130.723 34.1406 130.723 30.8789C130.723 27.5977 131.26 24.7461 132.334 22.3242C133.408 19.9023 134.912 18.0273 136.846 16.6992C138.799 15.3711 141.074 14.707 143.672 14.707C147.031 14.707 150.215 15.9277 153.223 18.3691V10.8398H148.096V2.8418L167.285 0.9375V37.8516H171.387V46.6406H153.516V43.3594C152.305 44.5117 150.898 45.4395 149.297 46.1426C147.695 46.8262 146.064 47.168 144.404 47.168ZM148.945 38.4082C149.688 38.4082 150.449 38.291 151.23 38.0566C152.031 37.8223 152.695 37.5195 153.223 37.1484V24.8145C152.695 24.4238 152.031 24.1016 151.23 23.8477C150.449 23.5938 149.688 23.4668 148.945 23.4668C147.578 23.4668 146.504 24.1211 145.723 25.4297C144.961 26.7383 144.58 28.5645 144.58 30.9082C144.58 33.252 144.961 35.0879 145.723 36.416C146.504 37.7441 147.578 38.4082 148.945 38.4082ZM192.158 47.168C188.486 47.168 185.312 46.5137 182.637 45.2051C179.98 43.8965 177.93 42.0312 176.484 39.6094C175.059 37.1875 174.346 34.3066 174.346 30.9668C174.346 27.6074 175.059 24.7168 176.484 22.2949C177.93 19.873 179.98 18.0078 182.637 16.6992C185.312 15.3711 188.486 14.707 192.158 14.707C195.83 14.707 198.994 15.3711 201.65 16.6992C204.326 18.0078 206.377 19.873 207.803 22.2949C209.248 24.7168 209.971 27.6074 209.971 30.9668C209.971 34.3066 209.248 37.1875 207.803 39.6094C206.377 42.0312 204.326 43.8965 201.65 45.2051C198.994 46.5137 195.83 47.168 192.158 47.168ZM192.158 38.6426C194.795 38.6426 196.113 36.0742 196.113 30.9375C196.113 25.8008 194.795 23.2324 192.158 23.2324C189.521 23.2324 188.203 25.8008 188.203 30.9375C188.203 36.0742 189.521 38.6426 192.158 38.6426ZM223.33 46.6406L214.277 24.0234H211.494V15.2344H232.676V24.0234H229.16L234.258 38.3789L239.854 24.0234H236.338V15.2344H251.191V24.0234H248.408L239.355 46.6406H223.33ZM264.756 46.6406L255.703 24.0234H252.92V15.2344H274.102V24.0234H270.586L275.684 38.3789L281.279 24.0234H277.764V15.2344H292.617V24.0234H289.834L280.781 46.6406H264.756ZM306.445 46.6406L316.436 0H330.791L320.801 46.6406H306.445ZM345.645 46.6406V36.5332H350.332V10.1074H345.645V0H372.012V10.1074H365.566V36.6797H375.117L376.289 25.752H385.957V46.6406H345.645ZM399.639 47.168C397.627 47.168 395.83 46.7676 394.248 45.9668C392.686 45.1465 391.455 44.0234 390.557 42.5977C389.678 41.1719 389.238 39.5312 389.238 37.6758C389.238 34.7852 390.352 32.4805 392.578 30.7617C394.805 29.043 397.773 28.1836 401.484 28.1836C402.773 28.1836 404.004 28.2617 405.176 28.418C406.348 28.5742 407.539 28.8379 408.75 29.209V28.5645C408.75 26.7871 408.203 25.498 407.109 24.6973C406.035 23.8965 404.307 23.4961 401.924 23.4961C400.205 23.4961 398.467 23.7207 396.709 24.1699C394.951 24.6191 393.35 25.2441 391.904 26.0449L391.113 25.6934V17.1387C393.164 16.3379 395.488 15.7324 398.086 15.3223C400.703 14.9121 403.33 14.707 405.967 14.707C411.807 14.707 416.074 15.6836 418.77 17.6367C421.465 19.5898 422.812 22.7246 422.812 27.041V37.8516H426.621V46.6406H410.625L409.189 42.041C408.271 43.6426 406.963 44.9023 405.264 45.8203C403.584 46.7188 401.709 47.168 399.639 47.168ZM405.762 39.668C406.289 39.668 406.836 39.5801 407.402 39.4043C407.988 39.209 408.438 38.9551 408.75 38.6426V33.75C408.262 33.5352 407.764 33.3887 407.256 33.3105C406.768 33.2324 406.309 33.1934 405.879 33.1934C404.883 33.1934 404.043 33.4863 403.359 34.0723C402.695 34.6582 402.363 35.4395 402.363 36.416C402.363 37.4121 402.676 38.2031 403.301 38.7891C403.926 39.375 404.746 39.668 405.762 39.668ZM430.518 46.6406V37.8516H434.766V24.4043H430.518V16.4062L448.535 14.6777V18.6621C449.746 17.3926 451.26 16.416 453.076 15.7324C454.893 15.0293 456.846 14.6777 458.936 14.6777C462.471 14.6777 465.059 15.6836 466.699 17.6953C468.359 19.6875 469.189 22.6953 469.189 26.7188V37.8516H473.291V46.6406H455.127V26.7188C455.127 25.5859 454.883 24.7656 454.395 24.2578C453.906 23.7305 453.262 23.4668 452.461 23.4668C451.797 23.4668 451.133 23.6621 450.469 24.0527C449.824 24.4434 449.277 24.9805 448.828 25.6641V37.8516H451.465V46.6406H430.518ZM490.049 47.168C487.217 47.168 484.775 46.4941 482.725 45.1465C480.674 43.7988 479.102 41.9043 478.008 39.4629C476.914 37.002 476.367 34.1406 476.367 30.8789C476.367 27.5977 476.904 24.7461 477.979 22.3242C479.053 19.9023 480.557 18.0273 482.49 16.6992C484.443 15.3711 486.719 14.707 489.316 14.707C492.676 14.707 495.859 15.9277 498.867 18.3691V10.8398H493.74V2.8418L512.93 0.9375V37.8516H517.031V46.6406H499.16V43.3594C497.949 44.5117 496.543 45.4395 494.941 46.1426C493.34 46.8262 491.709 47.168 490.049 47.168ZM494.59 38.4082C495.332 38.4082 496.094 38.291 496.875 38.0566C497.676 37.8223 498.34 37.5195 498.867 37.1484V24.8145C498.34 24.4238 497.676 24.1016 496.875 23.8477C496.094 23.5938 495.332 23.4668 494.59 23.4668C493.223 23.4668 492.148 24.1211 491.367 25.4297C490.605 26.7383 490.225 28.5645 490.225 30.9082C490.225 33.252 490.605 35.0879 491.367 36.416C492.148 37.7441 493.223 38.4082 494.59 38.4082ZM537.803 47.168C534.131 47.168 530.957 46.5137 528.281 45.2051C525.625 43.8965 523.574 42.0312 522.129 39.6094C520.703 37.1875 519.99 34.3066 519.99 30.9668C519.99 27.6074 520.703 24.7168 522.129 22.2949C523.574 19.873 525.625 18.0078 528.281 16.6992C530.957 15.3711 534.131 14.707 537.803 14.707C541.475 14.707 544.639 15.3711 547.295 16.6992C549.971 18.0078 552.021 19.873 553.447 22.2949C554.893 24.7168 555.615 27.6074 555.615 30.9668C555.615 34.3066 554.893 37.1875 553.447 39.6094C552.021 42.0312 549.971 43.8965 547.295 45.2051C544.639 46.5137 541.475 47.168 537.803 47.168ZM537.803 38.6426C540.439 38.6426 541.758 36.0742 541.758 30.9375C541.758 25.8008 540.439 23.2324 537.803 23.2324C535.166 23.2324 533.848 25.8008 533.848 30.9375C533.848 36.0742 535.166 38.6426 537.803 38.6426ZM568.975 46.6406L559.922 24.0234H557.139V15.2344H578.32V24.0234H574.805L579.902 38.3789L585.498 24.0234H581.982V15.2344H596.836V24.0234H594.053L585 46.6406H568.975ZM598.535 46.6406V37.8516H602.783V10.6641H598.535V2.66602L616.846 0.9375V18.5156C619.404 15.9766 622.773 14.707 626.953 14.707C630.488 14.707 633.076 15.7129 634.717 17.7246C636.377 19.7168 637.207 22.7246 637.207 26.748V37.8516H641.309V46.6406H623.145V26.748C623.145 25.6152 622.9 24.7949 622.412 24.2871C621.924 23.7598 621.279 23.4961 620.479 23.4961C619.814 23.4961 619.15 23.6914 618.486 24.082C617.842 24.4727 617.295 25.0098 616.846 25.6934V37.8516H619.482V46.6406H598.535Z" fill="white"/>
</svg>
